<mxfile host="app.diagrams.net" modified="2024-05-20T02:58:45.711Z" agent="Mozilla/5.0 (Macintosh; Intel Mac OS X 10_15_7) AppleWebKit/537.36 (KHTML, like Gecko) Chrome/124.0.0.0 Safari/537.36" etag="aB5i6Px1vDRKs20leST-" version="24.2.5" type="github">
  <diagram name="Page-1" id="0jUli2d4OcOib96GvYO0">
    <mxGraphModel dx="1434" dy="786" grid="1" gridSize="10" guides="1" tooltips="1" connect="1" arrows="1" fold="1" page="1" pageScale="1" pageWidth="827" pageHeight="1169" math="0" shadow="0">
      <root>
        <mxCell id="0" />
        <mxCell id="1" parent="0" />
        <mxCell id="7naMjqUuw_jzjl6piqGJ-7" style="edgeStyle=orthogonalEdgeStyle;rounded=0;orthogonalLoop=1;jettySize=auto;html=1;entryX=0;entryY=0.5;entryDx=0;entryDy=0;" edge="1" parent="1" source="7naMjqUuw_jzjl6piqGJ-1" target="7naMjqUuw_jzjl6piqGJ-2">
          <mxGeometry relative="1" as="geometry" />
        </mxCell>
        <mxCell id="7naMjqUuw_jzjl6piqGJ-8" value="N&amp;nbsp; &amp;nbsp;N" style="edgeLabel;html=1;align=center;verticalAlign=middle;resizable=0;points=[];" vertex="1" connectable="0" parent="7naMjqUuw_jzjl6piqGJ-7">
          <mxGeometry x="-0.08" y="2" relative="1" as="geometry">
            <mxPoint as="offset" />
          </mxGeometry>
        </mxCell>
        <mxCell id="7naMjqUuw_jzjl6piqGJ-1" value="Country" style="rounded=1;whiteSpace=wrap;html=1;" vertex="1" parent="1">
          <mxGeometry x="150" y="370" width="120" height="60" as="geometry" />
        </mxCell>
        <mxCell id="7naMjqUuw_jzjl6piqGJ-12" style="edgeStyle=orthogonalEdgeStyle;rounded=0;orthogonalLoop=1;jettySize=auto;html=1;entryX=0;entryY=0.5;entryDx=0;entryDy=0;" edge="1" parent="1" source="7naMjqUuw_jzjl6piqGJ-2" target="7naMjqUuw_jzjl6piqGJ-11">
          <mxGeometry relative="1" as="geometry" />
        </mxCell>
        <mxCell id="7naMjqUuw_jzjl6piqGJ-13" value="N&amp;nbsp; N" style="edgeLabel;html=1;align=center;verticalAlign=middle;resizable=0;points=[];" vertex="1" connectable="0" parent="7naMjqUuw_jzjl6piqGJ-12">
          <mxGeometry x="-0.3467" y="3" relative="1" as="geometry">
            <mxPoint as="offset" />
          </mxGeometry>
        </mxCell>
        <mxCell id="7naMjqUuw_jzjl6piqGJ-2" value="业务类型" style="rounded=1;whiteSpace=wrap;html=1;" vertex="1" parent="1">
          <mxGeometry x="470" y="370" width="120" height="60" as="geometry" />
        </mxCell>
        <mxCell id="7naMjqUuw_jzjl6piqGJ-11" value="Institution" style="rounded=1;whiteSpace=wrap;html=1;" vertex="1" parent="1">
          <mxGeometry x="790" y="370" width="120" height="60" as="geometry" />
        </mxCell>
      </root>
    </mxGraphModel>
  </diagram>
</mxfile>
